<?xml version="1.0" encoding="UTF-8" standalone="no"?><svg xmlns="http://www.w3.org/2000/svg" xmlns:xlink="http://www.w3.org/1999/xlink" contentScriptType="application/ecmascript" contentStyleType="text/css" height="548px" preserveAspectRatio="none" style="width:686px;height:548px;" version="1.1" viewBox="0 0 686 548" width="686px" zoomAndPan="magnify"><defs><filter height="300%" id="fkmeg5oysa7j1" width="300%" x="-1" y="-1"><feGaussianBlur result="blurOut" stdDeviation="2.0"/><feColorMatrix in="blurOut" result="blurOut2" type="matrix" values="0 0 0 0 0 0 0 0 0 0 0 0 0 0 0 0 0 0 .4 0"/><feOffset dx="4.0" dy="4.0" in="blurOut2" result="blurOut3"/><feBlend in="SourceGraphic" in2="blurOut3" mode="normal"/></filter></defs><g><g id="Pomodoro"><rect fill="#FEFECE" filter="url(#fkmeg5oysa7j1)" height="50" rx="12.5" ry="12.5" style="stroke:#A80036;stroke-width:1.5;" width="92" x="181.1" y="103"/><line style="stroke:#A80036;stroke-width:1.5;" x1="181.1" x2="273.1" y1="129.2969" y2="129.2969"/><text fill="#000000" font-family="sans-serif" font-size="14" lengthAdjust="spacing" textLength="72" x="191.1" y="120.9951">Pomodoro</text></g><g id="ShortBreak"><rect fill="#FEFECE" filter="url(#fkmeg5oysa7j1)" height="50" rx="12.5" ry="12.5" style="stroke:#A80036;stroke-width:1.5;" width="97" x="157.6" y="484"/><line style="stroke:#A80036;stroke-width:1.5;" x1="157.6" x2="254.6" y1="510.2969" y2="510.2969"/><text fill="#000000" font-family="sans-serif" font-size="14" lengthAdjust="spacing" textLength="77" x="167.6" y="501.9951">ShortBreak</text></g><g id="Paused"><rect fill="#FEFECE" filter="url(#fkmeg5oysa7j1)" height="50" rx="12.5" ry="12.5" style="stroke:#A80036;stroke-width:1.5;" width="72" x="18.1" y="230"/><line style="stroke:#A80036;stroke-width:1.5;" x1="18.1" x2="90.1" y1="256.2969" y2="256.2969"/><text fill="#000000" font-family="sans-serif" font-size="14" lengthAdjust="spacing" textLength="52" x="28.1" y="247.9951">Paused</text></g><g id="LongBreak"><rect fill="#FEFECE" filter="url(#fkmeg5oysa7j1)" height="50" rx="12.5" ry="12.5" style="stroke:#A80036;stroke-width:1.5;" width="94" x="491.1" y="484"/><line style="stroke:#A80036;stroke-width:1.5;" x1="491.1" x2="585.1" y1="510.2969" y2="510.2969"/><text fill="#000000" font-family="sans-serif" font-size="14" lengthAdjust="spacing" textLength="74" x="501.1" y="501.9951">LongBreak</text></g><g id="Blinking"><rect fill="#FEFECE" filter="url(#fkmeg5oysa7j1)" height="50" rx="12.5" ry="12.5" style="stroke:#A80036;stroke-width:1.5;" width="74" x="245.1" y="230"/><line style="stroke:#A80036;stroke-width:1.5;" x1="245.1" x2="319.1" y1="256.2969" y2="256.2969"/><text fill="#000000" font-family="sans-serif" font-size="14" lengthAdjust="spacing" textLength="54" x="255.1" y="247.9951">Blinking</text></g><g id="Done"><rect fill="#FEFECE" filter="url(#fkmeg5oysa7j1)" height="50" rx="12.5" ry="12.5" style="stroke:#A80036;stroke-width:1.5;" width="58" x="338.1" y="357"/><line style="stroke:#A80036;stroke-width:1.5;" x1="338.1" x2="396.1" y1="383.2969" y2="383.2969"/><text fill="#000000" font-family="sans-serif" font-size="14" lengthAdjust="spacing" textLength="38" x="348.1" y="374.9951">Done</text></g><ellipse cx="227.1" cy="16" fill="#000000" filter="url(#fkmeg5oysa7j1)" rx="10" ry="10" style="stroke:none;stroke-width:1.0;"/><!--MD5=[5abfd414b49a17db4ee300fb3bb765fa]
link *start to Pomodoro--><path d="M227.1,26 C227.1,41.46 227.1,73.68 227.1,97.6 " fill="none" id="*start-to-Pomodoro" style="stroke:#A80036;stroke-width:1.0;"/><polygon fill="#A80036" points="227.1,102.87,231.1,93.87,227.1,97.87,223.1,93.87,227.1,102.87" style="stroke:#A80036;stroke-width:1.0;"/><text fill="#000000" font-family="sans-serif" font-size="13" lengthAdjust="spacing" textLength="32" x="228.1" y="69.0669">Start</text><!--MD5=[950a7860a22f972b1bce6ce9a1634053]
link Pomodoro to Paused--><path d="M180.79,134.26 C124.95,141.68 36.1,157.24 16.1,183 C6,196.01 13.25,212.08 24.01,225.64 " fill="none" id="Pomodoro-to-Paused" style="stroke:#A80036;stroke-width:1.0;"/><polygon fill="#A80036" points="27.45,229.77,24.7647,220.2943,24.2505,225.9277,18.617,225.4135,27.45,229.77" style="stroke:#A80036;stroke-width:1.0;"/><text fill="#000000" font-family="sans-serif" font-size="13" lengthAdjust="spacing" textLength="39" x="17.1" y="196.0669">Pause</text><!--MD5=[c613198c5befb29bda74aa67d85cdca2]
link Paused to Pomodoro--><path d="M63.95,229.91 C71.2,214.73 82.35,195.68 97.1,183 C119.7,163.58 150.25,150.41 176.07,141.94 " fill="none" id="Paused-to-Pomodoro" style="stroke:#A80036;stroke-width:1.0;"/><polygon fill="#A80036" points="180.83,140.41,171.0387,139.3465,176.0684,141.9354,173.4794,146.9651,180.83,140.41" style="stroke:#A80036;stroke-width:1.0;"/><text fill="#000000" font-family="sans-serif" font-size="13" lengthAdjust="spacing" textLength="52" x="98.1" y="196.0669">Resume</text><!--MD5=[38af19645c418650dc45c48540f9c419]
link Pomodoro to Blinking--><path d="M237.71,153.1 C246.76,173.68 259.81,203.33 269.41,225.16 " fill="none" id="Pomodoro-to-Blinking" style="stroke:#A80036;stroke-width:1.0;"/><polygon fill="#A80036" points="271.53,229.97,271.5728,220.1212,269.5192,225.3922,264.2482,223.3386,271.53,229.97" style="stroke:#A80036;stroke-width:1.0;"/><text fill="#000000" font-family="sans-serif" font-size="13" lengthAdjust="spacing" textLength="83" x="259.1" y="196.0669">TimerExpired</text><!--MD5=[d095fb1e57496b631d555f2f773105db]
link Blinking to Done--><path d="M298.49,280.1 C312.6,300.85 332.98,330.82 347.86,352.71 " fill="none" id="Blinking-to-Done" style="stroke:#A80036;stroke-width:1.0;"/><polygon fill="#A80036" points="350.76,356.97,349.0115,347.2776,347.9504,352.834,342.394,351.773,350.76,356.97" style="stroke:#A80036;stroke-width:1.0;"/><text fill="#000000" font-family="sans-serif" font-size="13" lengthAdjust="spacing" textLength="30" x="331.1" y="323.0669">Stop</text><!--MD5=[8ce28fc838e02063ce4b461903d2a006]
link Done to ShortBreak--><path d="M337.95,387.51 C307.66,393.66 260.76,407.48 232.1,437 C221.11,448.32 214.71,464.67 211.01,478.83 " fill="none" id="Done-to-ShortBreak" style="stroke:#A80036;stroke-width:1.0;"/><polygon fill="#A80036" points="209.76,483.93,215.7803,476.1354,210.9458,479.0726,208.0085,474.2381,209.76,483.93" style="stroke:#A80036;stroke-width:1.0;"/><text fill="#000000" font-family="sans-serif" font-size="13" lengthAdjust="spacing" textLength="164" x="233.1" y="450.0669">PomodoroCount % 6 != 0</text><!--MD5=[bb4f31f90b6e8cd14b0251b1d4fbca1f]
link Done to LongBreak--><path d="M387.95,407.16 C401.35,421.81 419.65,440.25 438.1,454 C452.93,465.04 470.29,475.24 486.36,483.72 " fill="none" id="Done-to-LongBreak" style="stroke:#A80036;stroke-width:1.0;"/><polygon fill="#A80036" points="490.85,486.07,484.7159,478.3646,486.4156,483.7601,481.0201,485.4597,490.85,486.07" style="stroke:#A80036;stroke-width:1.0;"/><text fill="#000000" font-family="sans-serif" font-size="13" lengthAdjust="spacing" textLength="170" x="439.1" y="450.0669">PomodoroCount % 6 == 0</text><!--MD5=[d92284f99ebc20f29754810641ff9bed]
link ShortBreak to Pomodoro--><path d="M201.09,483.9 C194.01,446.59 182.6,372.63 189.1,310 C194.74,255.66 209.67,193.61 219.05,158.09 " fill="none" id="ShortBreak-to-Pomodoro" style="stroke:#A80036;stroke-width:1.0;"/><polygon fill="#A80036" points="220.39,153.05,214.2145,160.7223,219.107,157.8826,221.9467,162.7751,220.39,153.05" style="stroke:#A80036;stroke-width:1.0;"/><text fill="#000000" font-family="sans-serif" font-size="13" lengthAdjust="spacing" textLength="121" x="190.1" y="323.0669">Stop, TimerExpired</text><!--MD5=[8f58cb5bcc0ea0aa80849b95ce416ca6]
link LongBreak to Pomodoro--><path d="M585.32,486.89 C605.18,474.63 622.07,457.54 614.1,437 C558.8,294.46 509.74,267.16 382.1,183 C350.49,162.15 309.93,148.4 278.23,139.99 " fill="none" id="LongBreak-to-Pomodoro" style="stroke:#A80036;stroke-width:1.0;"/><polygon fill="#A80036" points="273.22,138.69,280.9262,144.823,278.0596,139.9463,282.9363,137.0797,273.22,138.69" style="stroke:#A80036;stroke-width:1.0;"/><text fill="#000000" font-family="sans-serif" font-size="13" lengthAdjust="spacing" textLength="121" x="557.1" y="323.0669">Stop, TimerExpired</text><!--MD5=[e2b7a65d3c7a2d6c4e290b57ff4c49e4]
link Pomodoro to Done--><path d="M273.23,137.51 C300.11,144.92 332.31,158.5 351.1,183 C388.82,232.17 381.47,309.87 373.74,351.82 " fill="none" id="Pomodoro-to-Done" style="stroke:#A80036;stroke-width:1.0;"/><polygon fill="#A80036" points="372.8,356.75,378.4242,348.6649,373.7421,351.8396,370.5675,347.1575,372.8,356.75" style="stroke:#A80036;stroke-width:1.0;"/><text fill="#000000" font-family="sans-serif" font-size="13" lengthAdjust="spacing" textLength="30" x="381.1" y="259.5669">Stop</text><!--MD5=[bf573ce0d5f95cf70518e5f9c2c535a9]
@startuml

state Pomodoro
state ShortBreak
state Paused
state LongBreak
state Blinking
state Done

[*] - -> Pomodoro : Start
Pomodoro - -> Paused : Pause
Paused - -> Pomodoro : Resume
Pomodoro - -> Blinking : TimerExpired
Blinking - -> Done : Stop
Done - -> ShortBreak : PomodoroCount % 6 != 0
Done - -> LongBreak : PomodoroCount % 6 == 0
ShortBreak - -> Pomodoro : Stop, TimerExpired
LongBreak - -> Pomodoro : Stop, TimerExpired
Pomodoro - -> Done : Stop
@enduml

PlantUML version 1.2021.00(Sun Jan 10 02:25:05 PST 2021)
(GPL source distribution)
Java Runtime: OpenJDK Runtime Environment
JVM: OpenJDK 64-Bit Server VM
Default Encoding: UTF-8
Language: en
Country: US
--></g></svg>